<?xml version="1.0" standalone="no"?>
<!DOCTYPE svg PUBLIC "-//W3C//DTD SVG 20010904//EN"
 "http://www.w3.org/TR/2001/REC-SVG-20010904/DTD/svg10.dtd">
<svg version="1.0" xmlns="http://www.w3.org/2000/svg"
 width="2100.000000pt" height="1500.000000pt" viewBox="0 0 2100.000000 1500.000000"
 preserveAspectRatio="xMidYMid meet">

<g transform="translate(0.000000,1500.000000) scale(0.100000,-0.100000)"
fill="#000000" stroke="none">
<path d="M8490 10629 c0 -10 -7 -16 -17 -15 -13 1 -25 -20 -48 -89 -16 -50
-38 -103 -47 -118 -11 -15 -18 -45 -18 -72 0 -25 -4 -45 -10 -45 -5 0 -10 -7
-10 -15 0 -9 -8 -32 -19 -53 -10 -20 -28 -92 -41 -159 -14 -76 -27 -123 -34
-123 -7 0 -17 -27 -24 -59 -7 -32 -18 -61 -25 -64 -7 -3 -23 -54 -36 -113 -13
-60 -29 -113 -36 -119 -12 -10 -55 -184 -55 -222 0 -14 -6 -23 -15 -23 -10 0
-15 -10 -15 -31 0 -46 -21 -120 -36 -126 -8 -3 -14 -12 -14 -19 0 -8 -7 -17
-15 -20 -9 -4 -15 -19 -15 -39 0 -19 -4 -37 -10 -40 -5 -3 -10 -15 -10 -26 0
-10 -4 -19 -10 -19 -5 0 -10 -18 -10 -39 0 -22 -4 -43 -10 -46 -5 -3 -16 -28
-24 -56 -8 -27 -24 -62 -35 -78 -11 -15 -25 -49 -30 -74 -13 -55 -68 -177
-104 -230 -14 -21 -29 -58 -33 -83 -5 -37 -14 -51 -49 -80 -35 -29 -43 -40
-41 -67 0 -21 -3 -31 -11 -30 -7 2 -19 -12 -27 -31 -8 -19 -24 -39 -35 -46
-12 -6 -21 -20 -21 -32 0 -18 -4 -20 -32 -14 -36 7 -58 29 -58 59 0 10 -10 32
-21 49 -15 20 -31 77 -50 176 -15 81 -38 183 -52 227 -13 44 -27 100 -31 125
-23 149 -60 358 -67 375 -4 11 -10 36 -13 55 -2 19 -16 80 -30 135 -17 64 -27
129 -28 180 0 64 -4 84 -20 101 -13 14 -20 40 -23 83 -2 40 -10 70 -20 81 -9
10 -35 67 -56 127 -41 110 -66 155 -127 230 -29 37 -37 41 -54 32 -11 -6 -29
-31 -40 -57 -33 -73 -13 -217 29 -210 11 2 24 -17 43 -65 15 -37 39 -82 54
-101 19 -25 29 -59 42 -132 13 -76 23 -108 46 -140 16 -22 36 -67 44 -100 9
-32 22 -71 30 -86 8 -15 14 -44 14 -65 1 -21 9 -63 20 -93 10 -30 16 -66 14
-80 -3 -14 15 -103 40 -197 33 -123 46 -192 46 -240 0 -52 5 -76 21 -103 14
-22 23 -58 27 -100 2 -36 8 -69 12 -75 4 -5 10 -35 14 -66 8 -76 128 -362 163
-389 34 -27 85 -26 117 3 14 12 48 74 76 141 28 66 66 145 85 176 19 31 43 76
53 100 11 25 29 54 41 64 13 12 21 31 21 53 0 23 5 33 15 33 10 0 15 10 15 30
0 17 7 42 17 56 30 47 60 147 52 177 -6 22 -4 29 9 33 60 19 63 22 56 63 -5
32 -1 46 20 77 20 30 26 51 26 92 0 38 11 82 39 155 22 56 58 176 81 267 25
99 51 180 66 202 25 40 29 64 15 87 -6 10 -5 18 4 25 18 16 41 95 60 214 15
89 21 106 47 132 18 18 28 37 25 47 -3 10 -8 35 -12 56 -5 33 -4 37 15 37 16
0 20 6 20 30 0 17 8 47 19 68 10 20 23 66 29 101 7 40 20 73 33 87 17 18 20
30 15 57 -3 18 -1 47 5 65 7 22 7 36 0 49 -9 16 -10 16 -11 2z"/>
<path d="M11671 9886 c-14 -17 -21 -94 -27 -291 -2 -82 -6 -213 -8 -290 -2
-82 -10 -163 -19 -195 -8 -30 -18 -67 -21 -82 -4 -16 -11 -28 -16 -28 -15 0
-84 50 -95 69 -5 10 -24 31 -42 45 -18 15 -35 36 -38 46 -5 15 -12 19 -31 14
-15 -4 -31 -1 -42 8 -21 19 -81 40 -93 32 -5 -3 -15 -2 -21 3 -30 18 -62 19
-140 5 -98 -18 -191 -56 -228 -93 -34 -33 -80 -111 -80 -137 0 -7 -9 -25 -19
-40 -10 -15 -22 -47 -25 -72 -7 -47 -29 -122 -52 -178 -8 -18 -14 -43 -14 -56
0 -13 -7 -40 -15 -59 -8 -20 -15 -56 -15 -81 0 -25 -4 -48 -10 -51 -5 -3 -10
-25 -10 -48 0 -23 -5 -61 -10 -85 -6 -23 -11 -81 -12 -130 0 -48 -6 -93 -11
-100 -7 -9 -5 -17 8 -26 10 -7 25 -37 34 -67 14 -43 26 -61 70 -97 49 -40 57
-43 93 -37 22 4 52 13 66 21 15 8 34 14 43 14 9 0 24 9 33 19 10 11 30 23 45
27 28 7 209 203 271 294 13 19 45 60 70 90 53 63 90 121 90 142 0 8 13 24 30
36 16 13 44 53 64 95 19 39 44 80 55 89 20 17 21 16 32 -4 7 -13 13 -107 16
-247 4 -205 7 -234 30 -311 26 -90 84 -194 115 -211 14 -8 24 -7 35 3 19 15
63 106 63 128 0 18 -58 54 -81 51 -8 -1 -28 5 -44 13 -28 15 -28 15 -30 123
-1 59 -5 115 -8 123 -3 8 -6 29 -6 45 0 17 -1 39 -2 50 0 11 0 47 0 80 0 33 1
71 0 85 0 79 15 231 31 315 6 33 13 83 15 110 2 28 6 73 9 100 3 28 9 101 15
164 6 62 16 119 22 127 7 8 8 21 3 31 -4 10 -9 23 -10 28 -1 6 -3 15 -4 20 -4
15 -8 51 -13 138 -3 43 -10 83 -16 91 -6 7 -8 16 -4 19 3 4 6 21 5 39 0 18 4
35 9 39 10 6 -26 59 -41 59 -4 0 -13 -6 -19 -14z m-355 -791 c29 -14 56 -25
60 -25 13 0 82 -81 94 -111 7 -16 15 -29 19 -29 3 0 19 -11 36 -24 25 -20 27
-26 16 -39 -7 -9 -28 -48 -47 -87 -18 -39 -40 -73 -49 -76 -8 -3 -15 -15 -15
-25 0 -26 -66 -116 -91 -124 -11 -4 -19 -15 -19 -29 0 -13 -8 -30 -18 -40 -11
-9 -25 -35 -32 -57 -8 -23 -23 -45 -34 -50 -37 -17 -71 -39 -62 -39 5 0 2 -8
-7 -18 -9 -10 -14 -27 -11 -39 4 -15 0 -23 -14 -28 -12 -3 -58 -42 -102 -85
-45 -44 -86 -80 -91 -80 -5 0 -17 -7 -26 -16 -51 -45 -80 -64 -99 -64 -12 0
-27 -6 -33 -14 -9 -10 -18 -11 -46 -2 -19 6 -35 16 -35 23 0 6 -5 13 -11 15
-15 5 -51 110 -43 128 3 8 8 58 10 110 7 148 12 179 40 231 20 36 25 57 21 83
-4 26 0 42 14 60 10 13 19 33 19 44 0 11 7 33 15 48 8 16 15 43 15 60 0 38 29
124 41 124 6 0 15 13 22 28 7 16 29 43 49 61 21 18 35 38 32 46 -3 8 3 23 13
35 17 17 35 21 118 25 54 3 101 8 104 11 11 11 95 -6 147 -31z"/>
<path d="M8918 9464 c-7 -9 -26 -29 -41 -45 -23 -24 -26 -32 -17 -49 9 -17 7
-28 -11 -56 -14 -24 -18 -39 -11 -46 13 -13 3 -48 -14 -48 -8 0 -14 -4 -14
-10 0 -5 6 -10 14 -10 11 0 13 -35 10 -202 -2 -112 -7 -237 -11 -278 -3 -41
-5 -118 -4 -171 2 -78 0 -102 -14 -123 -16 -24 -16 -28 -2 -39 19 -15 25 -75
10 -102 -8 -15 -8 -26 0 -40 5 -11 12 -42 13 -70 6 -89 9 -103 27 -122 9 -11
17 -31 17 -46 0 -14 12 -39 26 -54 14 -15 30 -38 35 -50 11 -30 23 -29 37 2
16 35 15 43 -7 50 -13 4 -18 12 -14 21 3 8 -3 24 -12 34 -11 12 -13 20 -6 20
7 0 6 9 -6 26 -14 22 -15 33 -6 67 9 32 8 43 -2 52 -10 8 -11 32 -4 115 5 58
8 114 7 125 -4 59 2 128 12 141 10 11 10 18 -4 32 -21 24 -21 48 1 60 14 8 15
14 4 39 -8 21 -9 42 -2 72 6 30 6 51 -2 68 -9 20 -8 27 4 37 10 8 14 25 11 62
-3 36 2 62 14 85 22 41 33 112 38 242 2 54 7 101 10 104 3 3 1 12 -5 20 -9 10
-7 19 4 37 15 22 15 25 -1 39 -28 24 -69 29 -84 11z"/>
<path d="M12466 9464 c-9 -8 -16 -20 -16 -25 0 -5 -7 -9 -15 -9 -21 0 -33 -29
-28 -70 4 -25 0 -40 -11 -49 -12 -10 -14 -23 -10 -52 6 -36 5 -39 -17 -39 -23
-1 -23 -1 -4 -15 18 -14 19 -27 17 -223 -1 -114 -7 -245 -13 -291 -6 -47 -8
-118 -5 -158 5 -57 3 -79 -10 -105 -15 -28 -15 -33 -1 -43 12 -8 15 -24 12
-61 -6 -67 -6 -61 5 -134 6 -36 12 -76 13 -90 1 -14 11 -37 21 -52 12 -18 16
-37 12 -53 -4 -17 -2 -25 7 -25 7 0 26 -20 41 -45 16 -25 32 -45 36 -45 4 0
13 14 21 31 11 28 10 33 -6 45 -10 8 -15 17 -12 21 4 3 -3 17 -15 30 -12 13
-16 23 -10 23 7 0 5 11 -6 29 -14 26 -15 34 -3 66 11 31 11 38 -2 48 -11 10
-12 31 -6 117 5 58 9 114 9 125 0 11 0 41 -1 67 0 27 5 57 11 67 7 15 6 27 -8
51 -16 30 -16 32 2 45 17 13 17 18 6 44 -7 17 -9 39 -5 48 13 30 14 64 4 91
-8 20 -7 29 5 37 11 8 14 25 11 60 -3 32 2 58 12 79 20 38 33 121 37 243 2 50
7 96 11 103 4 6 2 17 -4 23 -7 9 -6 21 3 39 16 31 10 43 -27 57 -37 14 -43 14
-61 -5z"/>
<path d="M13560 9228 c-14 -5 -53 -15 -87 -22 -34 -7 -99 -28 -145 -47 -74
-30 -93 -44 -176 -127 -51 -51 -98 -105 -104 -120 -6 -15 -11 -66 -11 -113 1
-79 4 -91 41 -170 35 -70 49 -89 89 -115 26 -18 65 -35 86 -38 21 -4 54 -18
74 -32 20 -13 41 -24 48 -24 7 0 29 -12 50 -26 21 -14 50 -27 64 -29 14 -2 46
-11 71 -20 25 -10 65 -20 90 -22 25 -3 52 -11 60 -18 8 -7 25 -16 37 -19 11
-4 27 -13 33 -21 7 -8 20 -15 29 -15 20 0 65 -56 74 -92 8 -32 -20 -58 -91
-83 -26 -10 -65 -26 -87 -36 -63 -29 -117 -38 -320 -50 -104 -6 -200 -14 -212
-19 -15 -6 -25 -5 -33 6 -7 8 -23 14 -35 14 -36 0 -55 10 -55 30 0 11 -4 22
-10 25 -5 3 -10 15 -10 26 0 16 -6 20 -24 17 -13 -1 -31 4 -40 11 -15 13 -18
12 -23 -7 -3 -13 -16 -23 -35 -27 -28 -7 -29 -9 -23 -43 9 -51 30 -80 63 -88
15 -4 30 -11 33 -16 3 -4 48 -10 100 -13 52 -2 117 -7 144 -10 106 -13 389 -2
411 16 7 6 25 9 40 6 14 -2 43 4 64 14 22 11 50 19 63 19 13 0 32 9 42 20 10
11 24 20 32 20 20 0 60 48 91 111 l28 57 -19 36 c-10 20 -23 36 -28 36 -5 0
-9 6 -9 13 0 8 -17 32 -38 55 -31 34 -46 42 -74 42 -19 0 -43 7 -54 15 -29 23
-104 55 -127 55 -11 0 -28 6 -36 14 -9 7 -42 21 -73 30 -31 9 -60 21 -63 26
-3 6 -21 10 -39 10 -18 0 -45 9 -59 20 -14 11 -39 20 -55 20 -16 0 -35 6 -41
14 -7 8 -35 26 -64 41 -57 29 -107 85 -107 121 0 13 -4 25 -9 28 -17 11 19
120 52 155 71 76 121 121 134 121 8 0 27 6 41 14 50 25 117 54 157 66 22 7 53
19 68 27 25 13 31 13 52 -1 14 -9 46 -16 74 -16 46 0 52 -3 66 -31 24 -45 48
-35 59 25 8 40 7 50 -6 60 -9 6 -17 20 -19 31 -3 11 -13 21 -24 24 -11 2 -22
7 -25 11 -8 12 -143 19 -170 8z"/>
<path d="M9523 9130 c-34 -20 -41 -34 -23 -45 6 -3 10 -27 10 -53 1 -26 7 -58
14 -71 10 -18 11 -31 3 -48 -7 -16 -7 -27 3 -38 26 -31 45 -628 21 -672 -6
-13 -5 -24 5 -37 10 -14 13 -55 12 -158 -1 -150 2 -158 50 -158 15 0 21 4 16
12 -5 8 0 9 17 5 18 -5 28 -1 41 15 15 21 15 24 -4 51 -26 37 -33 148 -12 189
8 15 11 34 8 43 -4 8 3 38 15 65 11 27 21 58 21 69 0 10 4 21 10 23 5 2 13 26
16 53 4 28 12 55 18 60 6 6 24 37 41 70 16 33 40 70 52 83 13 13 23 29 23 36
0 17 45 79 98 133 23 24 42 50 42 58 0 8 7 15 16 15 9 0 28 12 43 28 59 60
184 142 216 142 7 0 28 11 48 24 20 14 56 28 81 31 32 5 46 12 49 26 4 16 -1
21 -26 27 -18 3 -36 5 -42 3 -5 -1 -30 -5 -55 -7 -54 -6 -113 -33 -166 -77
-21 -18 -58 -45 -82 -60 -24 -15 -45 -34 -49 -42 -3 -8 -11 -15 -18 -15 -8 0
-23 -13 -35 -30 -12 -16 -30 -30 -41 -30 -11 0 -23 -10 -29 -24 -5 -13 -18
-27 -30 -31 -14 -4 -19 -12 -16 -23 3 -11 -7 -26 -29 -42 -18 -14 -36 -36 -40
-48 -3 -13 -16 -33 -29 -45 -13 -12 -26 -34 -30 -50 -3 -15 -22 -48 -41 -73
-19 -25 -35 -56 -35 -69 0 -13 -4 -26 -9 -30 -24 -14 -30 35 -35 280 -1 88 -8
197 -15 243 -7 46 -9 92 -6 103 9 26 -26 109 -45 109 -8 0 -30 -9 -47 -20z"/>
<path d="M14141 8919 c-127 -195 -151 -345 -80 -499 21 -46 35 -67 37 -56 5
23 31 17 112 -29 35 -20 58 -30 52 -23 -16 20 -68 157 -82 218 -15 67 -20 73
-81 108 -30 16 -49 34 -49 45 0 21 37 23 64 2 11 -8 23 -15 28 -15 4 0 9 57
10 128 3 123 4 127 25 130 22 3 22 2 17 -90 -4 -54 -2 -124 5 -168 15 -92 53
-228 59 -209 6 16 128 167 151 187 8 6 21 12 28 12 31 0 7 -46 -76 -147 l-88
-109 38 -80 39 -79 0 40 c0 93 56 233 123 310 l34 39 -30 49 c-49 80 -202 226
-293 280 -5 3 -25 -17 -43 -44z"/>
<path d="M14949 8755 c-171 -27 -300 -86 -394 -180 -109 -109 -163 -277 -138
-429 l6 -39 96 6 c337 18 536 225 598 620 l6 37 -44 -1 c-24 -1 -83 -7 -130
-14z m118 -22 c2 -6 -6 -15 -19 -18 -36 -12 -157 -84 -221 -133 -73 -56 -177
-151 -177 -163 0 -5 68 -9 150 -9 93 0 150 -4 150 -10 0 -6 -62 -10 -165 -10
l-165 0 -41 -52 c-23 -29 -62 -88 -87 -130 -24 -43 -49 -78 -53 -78 -18 0 -8
37 21 84 17 26 28 51 26 54 -8 13 -10 191 -2 199 14 15 26 -23 26 -89 0 -38 3
-68 8 -67 4 0 30 30 57 66 28 36 81 93 118 128 l68 64 -2 55 c-1 31 0 59 4 62
14 14 27 -10 27 -52 l0 -44 48 34 c64 47 205 126 216 123 6 -2 11 -8 13 -14z"/>
<path d="M14160 8285 c45 -47 190 -153 190 -138 0 4 -11 25 -24 47 -19 29 -46
50 -118 88 l-93 50 45 -47z"/>
<path d="M14607 8025 c-22 -7 -49 -23 -61 -34 -16 -15 -35 -21 -69 -21 -26 0
-65 -7 -87 -16 -37 -15 -42 -15 -82 5 -128 61 -277 44 -365 -41 l-33 -32 -35
17 c-20 9 -49 17 -66 17 -30 0 -103 -32 -114 -50 -4 -7 219 -10 682 -9 534 1
680 4 651 13 -20 6 -49 23 -65 38 -32 31 -91 58 -126 58 -13 0 -38 11 -57 25
-33 24 -89 45 -120 45 -8 -1 -32 -7 -53 -15z"/>
</g>
</svg>
